<?xml version="1.0" encoding="utf-8"?>
<!-- Generator: Adobe Illustrator 21.0.0, SVG Export Plug-In . SVG Version: 6.00 Build 0)  -->
<svg version="1.1" id="Layer_1" xmlns="http://www.w3.org/2000/svg" xmlns:xlink="http://www.w3.org/1999/xlink" x="0px" y="0px"
	 viewBox="0 0 310.1 122.7" style="enable-background:new 0 0 310.1 122.7;" xml:space="preserve">
<style type="text/css">
	.st0{fill:#0052DE;}
	.st1{fill:none;}
	.st2{fill:#FFFFFF;}
</style>
<g>
	<g transform="translate(10 2.268)scale(.96429)">
		<rect x="-10.4" y="-2.4" class="st0" width="321.6" height="127.2"/>
		<rect x="127.8" y="17.4" class="st1" width="166.9" height="88.1"/>
		<path class="st2" d="M127.5,13.2c0-1.1,0.5-1.6,1.6-1.6h15.4c2.2,0,4.5,0.2,6.9,0.6c2.3,0.4,4.5,1.1,6.5,2c2,1,3.6,2.4,4.8,4.1
			c1.2,1.8,1.8,4,1.8,6.8c0,2.5-0.5,4.7-1.6,6.5s-2.6,3.5-4.6,4.8l-0.3,0.2c-0.1,0.1-0.2,0.2-0.2,0.3c0,0.1,0.1,0.2,0.2,0.3
			c0.1,0.1,0.2,0.1,0.3,0.2c2.6,1.3,4.8,2.9,6.5,4.8c1.7,1.9,2.6,4.4,2.6,7.5c0,2.9-0.6,5.4-1.8,7.3c-1.2,2-2.8,3.5-4.9,4.7
			c-2,1.2-4.3,2-6.7,2.5c-2.5,0.5-4.9,0.8-7.4,0.8H129c-1,0-1.6-0.5-1.6-1.6c0-1.4,0-2.8,0.1-4.3c0.1-1.4,0.1-2.9,0.1-4.3
			c0.1-5.7,0.1-11.4,0.1-17.1c0-5.3,0-10.7-0.1-16c0-1.4-0.1-2.9-0.1-4.3C127.5,16,127.5,14.6,127.5,13.2 M137.2,33.9h8.9
			c1.4,0,2.7-0.2,4-0.7c1.3-0.5,2.4-1.2,3.2-2.2c0.8-1,1.3-2.3,1.3-3.9c0-1.7-0.5-3.1-1.6-4c-1-0.9-2.3-1.5-3.8-1.8
			c-1.5-0.3-2.9-0.5-4.3-0.5h-7.7c0,2.2,0,4.4,0,6.6V33.9z M137.2,56.1h9.3c1.1,0,2.2-0.1,3.5-0.3c1.3-0.2,2.5-0.5,3.6-1
			c1.2-0.5,2.1-1.2,2.9-2c0.7-0.9,1.1-2,1.1-3.4c0-1.4-0.4-2.6-1.3-3.4c-0.8-0.8-1.9-1.5-3.2-1.9c-1.3-0.4-2.6-0.7-4-0.9
			c-1.4-0.1-2.6-0.2-3.6-0.2h-8.3v6.5C137.2,51.7,137.2,53.9,137.2,56.1 M187.6,65.7c-3.3,0-6.1-0.8-8.3-2.4c-2.2-1.6-3.9-3.7-5-6.3
			c-1.1-2.6-1.7-5.4-1.7-8.5V48c0.1-3.2,0.7-6.2,2-9c1.3-2.8,3.1-5.1,5.6-6.8c2.4-1.7,5.4-2.6,8.8-2.6c2.1,0,4.1,0.4,6,1.2
			c1.8,0.8,3.6,1.9,5.2,3.3c0.2,0.2,0.3,0.3,0.5,0.3c0.3,0,0.5-0.3,0.4-1s0.1-1.3,0.3-1.9c0.2-0.6,0.7-1,1.5-1h5.4
			c1,0,1.6,0.5,1.6,1.6c0,1.1,0,2.2,0,3.3c0,1.1,0,2.2,0,3.3c0,2.8,0,5.6,0,8.4c0,2.8,0.1,5.6,0.1,8.4c0,1.3,0.1,2.6,0.1,4
			c0,1.3,0.1,2.7,0.1,4c0,1.1-0.5,1.6-1.6,1.6h-6c-0.7,0-1.1-0.2-1.3-0.7c-0.2-0.4-0.3-1-0.3-1.6c0-0.6,0-1.2,0-1.6
			c0-0.1,0-0.2,0-0.4c0-0.2-0.1-0.3-0.2-0.3c-0.1,0-0.2,0-0.3,0.1c-0.1,0.1-0.2,0.1-0.3,0.2c-1.8,1.5-3.7,2.7-5.8,3.6
			C192.2,65.2,189.9,65.7,187.6,65.7 M191.4,57.6c1.8,0,3.5-0.4,5-1.1c1.5-0.8,2.7-1.9,3.6-3.6c0-0.1,0.2-0.4,0.4-0.8
			c0.2-0.4,0.3-0.7,0.3-0.8c0-0.9,0-1.8,0-2.7c0-0.9,0-1.8,0-2.6c0-0.4,0-0.9,0-1.3c0-0.5,0-0.9,0-1.3c0-0.2-0.1-0.4-0.3-0.8
			c-0.2-0.4-0.3-0.6-0.4-0.8c-0.9-1.6-2.1-2.8-3.8-3.6c-1.6-0.8-3.3-1.2-5.1-1.2c-1.9,0-3.5,0.5-5,1.4c-1.4,0.9-2.5,2.2-3.3,3.7
			c-0.8,1.5-1.2,3.2-1.2,5s0.4,3.5,1.3,5.1c0.8,1.6,2,2.8,3.5,3.8C187.9,57.1,189.6,57.6,191.4,57.6 M219,30.4h5.1
			c0.9,0,1.5,0.5,1.6,1.4c0.1,0.5,0.1,1,0.2,1.5c0.1,0.5,0.1,1,0.2,1.5c0,0.1,0,0.2,0.1,0.4c0,0.2,0.1,0.4,0.3,0.4
			c0.1,0,0.3-0.1,0.4-0.2c0.1-0.2,0.2-0.3,0.2-0.3c1.5-2,3.4-3.4,5.6-4.2c2.2-0.9,4.5-1.3,6.9-1.3c2,0,3.8,0.4,5.5,1.2
			c1.7,0.8,3,2,4,3.5c1,1.5,1.5,3.3,1.5,5.4c0,3.9,0,7.9,0.1,11.8c0.1,4,0.1,7.9,0.1,11.8c0,1.1-0.5,1.6-1.6,1.6h-6
			c-1,0-1.5-0.5-1.6-1.6c-0.1-1.1-0.1-2.2-0.1-3.3c0-1.1,0-2.2,0-3.3c0-2.3,0-4.7,0-7v-6.9c0-1.8-0.5-3.2-1.6-4.1s-2.4-1.3-4.2-1.3
			c-2.2,0-3.9,0.7-5.3,2c-1.4,1.3-2.4,2.9-3.1,4.9c-0.7,1.9-1,3.8-1,5.7c0,2.2,0,4.5,0,6.7l-0.1,6.7c0,1-0.5,1.6-1.6,1.6h-6
			c-1,0-1.6-0.5-1.6-1.6c0-1.4,0-2.8,0.1-4.3c0-1.4,0.1-2.8,0.1-4.2c0.1-5.9,0.1-11.9,0.1-17.8V32C217.4,31,217.9,30.4,219,30.4
			 M265.5,65h-6c-1,0-1.6-0.5-1.6-1.6c0-1.4,0-2.8,0.1-4.2c0-1.4,0.1-2.8,0.1-4.2c0.1-2.9,0.1-5.8,0.1-8.8c0-2.9,0-5.8,0-8.8
			c0-2.9,0-5.8,0-8.8c0-2.9-0.1-5.8-0.1-8.8c0-1.4-0.1-2.8-0.1-4.2c0-1.4-0.1-2.8-0.1-4.2c0-1.1,0.5-1.6,1.6-1.6h6
			c1,0,1.5,0.5,1.6,1.6c0.1,1.5,0.1,3,0.1,4.4c0,1.5,0,3,0,4.4c0,3.1,0,6.2,0.1,9.3c0,3.1,0,6.2,0,9.3v5.9c0,0.3,0.1,0.5,0.3,0.5
			c0.1,0,0.2,0,0.2,0c2.5-0.7,5-1.6,7.4-2.7c2.4-1.1,4.5-2.5,6.3-4.3c1.8-1.8,3.1-4,3.8-6.7c0.1-0.4,0.3-0.8,0.5-1s0.6-0.4,1.1-0.4
			h6.8c0.4,0,0.8,0.1,1.1,0.3c0.3,0.2,0.4,0.5,0.4,1c0,0.1,0,0.3-0.1,0.5c-0.8,3.4-2.3,6.3-4.4,8.6c-2.1,2.3-4.6,4.4-7.5,6.2
			c-0.2,0.1-0.3,0.3-0.3,0.4c0,0.1,0.3,0.6,1.1,1.5c0.7,0.9,1.6,2.1,2.6,3.5c1,1.4,2.1,2.8,3.2,4.2c1.1,1.4,2.1,2.7,2.9,3.8
			s1.4,1.8,1.6,2.1c0.2,0.2,0.3,0.4,0.5,0.7c0.2,0.3,0.3,0.5,0.3,0.8c0,0.5-0.2,0.8-0.7,0.9c-0.5,0.1-0.9,0.1-1.2,0.1h-6.6
			c-0.4,0-0.8-0.2-1.2-0.6c-0.5-0.5-1-1-1.4-1.6c-0.5-0.6-0.9-1.1-1.4-1.7c-1.3-1.6-2.6-3.2-3.9-4.8c-1.3-1.6-2.6-3.2-4-4.8
			c-0.1-0.1-0.2-0.2-0.3-0.2c-0.1,0-0.1,0-0.2,0c-1.1,0.4-2.2,0.8-3.3,1.1c-1.1,0.3-2.2,0.7-3.3,1.1c-0.2,0.1-0.3,0.2-0.3,0.5
			l-0.1,9.3C267,64.5,266.5,65,265.5,65 M143.7,78.2c0,0.1-0.1,0.3-0.2,0.8c-0.1,0.5-0.2,0.9-0.3,1.4c-0.1,0.5-0.2,0.8-0.2,0.9
			c-0.1,0.2-0.1,0.4-0.2,0.5s-0.3,0.2-0.5,0.2c-0.2,0-0.3,0-0.5-0.1c-0.5-0.2-1.1-0.3-1.7-0.5c-0.6-0.1-1.1-0.2-1.7-0.2
			c-0.7,0-1.4,0.1-2.2,0.3c-0.7,0.2-1.3,0.5-1.8,1c-0.5,0.5-0.7,1.2-0.7,2c0,1.1,0.3,2,0.8,2.7c0.6,0.7,1.3,1.3,2.1,1.8
			c0.9,0.5,1.8,1,2.7,1.5s1.9,1.1,2.7,1.7s1.6,1.5,2.1,2.5c0.6,1,0.8,2.3,0.8,3.8c0,2.1-0.5,3.8-1.5,5.1c-1,1.3-2.3,2.2-4,2.8
			c-1.7,0.6-3.4,0.8-5.3,0.8c-0.6,0-1.2,0-2-0.1c-0.8-0.1-1.5-0.2-2.3-0.3c-0.8-0.1-1.4-0.3-1.9-0.5c-0.2-0.1-0.3-0.2-0.4-0.3
			c-0.1-0.1-0.2-0.3-0.2-0.5c0-0.1,0.1-0.4,0.2-0.9c0.1-0.5,0.2-1,0.4-1.5c0.1-0.5,0.2-0.8,0.2-0.9c0.1-0.2,0.2-0.4,0.3-0.5
			c0.1-0.1,0.3-0.2,0.5-0.2c0.1,0,0.3,0,0.4,0.1c0.7,0.2,1.4,0.4,2.2,0.5c0.7,0.1,1.5,0.2,2.2,0.2c0.9,0,1.8-0.1,2.6-0.4
			c0.8-0.3,1.5-0.7,2.1-1.3c0.5-0.6,0.8-1.4,0.8-2.5c0-1.2-0.3-2.2-0.8-2.9c-0.6-0.7-1.3-1.3-2.2-1.8c-0.9-0.5-1.8-1-2.8-1.4
			c-1-0.5-1.9-1-2.8-1.6c-0.9-0.6-1.6-1.4-2.2-2.4c-0.6-1-0.8-2.2-0.8-3.8c0-1.9,0.5-3.5,1.4-4.7c0.9-1.2,2.1-2,3.6-2.6
			c1.5-0.6,3.1-0.8,4.8-0.8c0.9,0,1.8,0.1,3,0.2c1.1,0.2,2.1,0.4,2.8,0.8c0.2,0.1,0.3,0.2,0.4,0.3C143.7,77.8,143.7,78,143.7,78.2
			 M160.7,87.3h2.4c0.3,0,0.6,0.2,0.8,0.5c0.2,0.4,0.5,0.8,0.7,1.3c0.2,0.5,0.4,0.9,0.7,1.3c0.6,1.1,1.1,2.1,1.6,3.2
			c0.5,1.1,1.1,2.1,1.7,3.2c0.1,0.2,0.2,0.2,0.2,0.2c0.1,0,0.2-0.1,0.2-0.2c0.5-1.1,1-2.1,1.5-3.2c0.5-1.1,1-2.1,1.5-3.2
			c0.2-0.4,0.4-0.9,0.6-1.3c0.2-0.5,0.4-0.9,0.6-1.3c0.2-0.3,0.5-0.5,0.8-0.5h3.1c0.2,0,0.4,0,0.6,0.1c0.2,0.1,0.3,0.2,0.3,0.5
			c0,0.1,0,0.2-0.1,0.3c0,0.1-0.1,0.2-0.1,0.3c-0.8,1.7-1.5,3.5-2.3,5.2c-0.8,1.7-1.6,3.4-2.3,5.2c-0.5,1.2-1.1,2.5-1.6,3.8
			c-0.5,1.3-1.1,2.5-1.7,3.8c-0.1,0.1-0.2,0.3-0.3,0.5c-0.1,0.2-0.3,0.3-0.5,0.3c-0.2,0-0.3-0.1-0.5-0.3c-0.1-0.2-0.2-0.4-0.3-0.5
			c-1-1.8-1.9-3.6-2.8-5.5c-0.9-1.9-1.8-3.7-2.8-5.5c0,0,0-0.1-0.1-0.2c0-0.1-0.1-0.1-0.1-0.1c-0.1,0-0.1,0-0.2,0.1
			c0,0.1-0.1,0.1-0.1,0.2c-0.9,1.8-1.7,3.6-2.5,5.5c-0.8,1.9-1.6,3.7-2.5,5.5c-0.1,0.1-0.2,0.3-0.3,0.5c-0.1,0.2-0.3,0.3-0.5,0.3
			c-0.2,0-0.4-0.1-0.5-0.3c-0.1-0.2-0.2-0.4-0.3-0.6c-0.6-1.3-1.2-2.7-1.8-4c-0.6-1.4-1.2-2.7-1.7-4c-0.7-1.6-1.5-3.3-2.2-4.9
			c-0.7-1.6-1.5-3.3-2.2-4.9c0-0.1-0.1-0.2-0.1-0.3c0-0.1-0.1-0.2-0.1-0.3c0-0.3,0.1-0.4,0.3-0.5c0.2-0.1,0.4-0.1,0.6-0.1h3.1
			c0.3,0,0.6,0.2,0.8,0.5c0.2,0.4,0.4,0.7,0.6,1.1l0.6,1.2c0.6,1.1,1.1,2.2,1.7,3.3c0.5,1.1,1.1,2.2,1.7,3.3
			c0.1,0.2,0.2,0.2,0.2,0.2c0.1,0,0.2-0.1,0.2-0.2c0.1-0.1,0.2-0.4,0.5-0.9c0.2-0.5,0.5-1.1,0.8-1.7c0.3-0.7,0.6-1.3,0.9-1.9
			c0.3-0.6,0.6-1.2,0.8-1.6c0.2-0.4,0.3-0.6,0.3-0.7c0-0.1-0.1-0.3-0.3-0.5c-0.2-0.3-0.3-0.5-0.5-0.8c-0.2-0.3-0.2-0.5-0.2-0.7
			c0-0.2,0.1-0.4,0.3-0.5C160.3,87.4,160.5,87.3,160.7,87.3 M181,78.9c0-0.8,0.3-1.5,0.9-2.1c0.6-0.6,1.3-0.9,2.1-0.9
			c0.8,0,1.5,0.3,2.1,0.9c0.6,0.6,0.9,1.3,0.9,2.1c0,0.8-0.3,1.5-0.9,2.1c-0.6,0.6-1.3,0.9-2.1,0.9c-0.8,0-1.5-0.3-2.1-0.9
			C181.3,80.4,181,79.7,181,78.9 M181.3,93v-4.8c0-0.6,0.3-0.9,0.9-0.9h3.3c0.6,0,0.9,0.3,0.9,0.9c0,3,0,6,0,9c0,3,0,6,0,9
			c0,0.6-0.3,0.9-0.9,0.9h-3.4c-0.6,0-0.9-0.3-0.9-0.9c0-2.2,0-4.4,0-6.6C181.3,97.4,181.3,95.2,181.3,93 M202.4,107.4
			c-1.1,0-2.1-0.2-3.2-0.5c-1-0.3-1.9-0.9-2.8-1.6c0,0-0.1-0.1-0.1-0.1c-0.1,0-0.1-0.1-0.2-0.1s-0.1,0.1-0.1,0.2c0,0.1,0,0.2,0,0.2
			c0,0.9,0,1.9,0,2.9s0,1.9,0,2.9c0,0.3,0,0.7,0,1.1c0,0.4,0,0.7,0,1.1c0,0.3-0.1,0.5-0.2,0.6c-0.1,0.1-0.3,0.2-0.7,0.2h-3.5
			c-0.6,0-0.9-0.3-0.9-0.9c0-1.1,0-2.2,0.1-3.4c0.1-1.1,0.1-2.2,0.1-3.3c0.1-2.4,0.1-4.7,0.1-7.1c0-2.4,0-4.7,0-7.1
			c0-0.7,0-1.4,0-2.1c0-0.7,0-1.4,0-2.1c0-0.6,0.3-0.9,0.9-0.9h2.8c0.5,0,0.7,0.2,0.8,0.5c0.1,0.4,0.2,0.7,0.2,1.1
			c0,0.4,0.1,0.5,0.3,0.5c0.1,0,0.1,0,0.2-0.1c1.1-0.8,2.2-1.4,3.3-1.9c1.1-0.4,2.4-0.7,3.7-0.7c2,0,3.8,0.5,5.1,1.4
			c1.4,1,2.4,2.2,3.1,3.8c0.7,1.6,1.1,3.3,1.1,5.2c0,2.1-0.4,3.9-1.2,5.4s-2,2.7-3.5,3.5C206.3,107,204.5,107.4,202.4,107.4
			 M201.4,103c1.1,0,2.1-0.3,3-0.8c0.9-0.5,1.6-1.2,2.2-2.1c0.5-0.9,0.8-1.9,0.8-3c0-1.7-0.6-3.1-1.7-4.2c-1.1-1.1-2.5-1.7-4.3-1.7
			c-1.2,0-2.3,0.3-3.3,0.9c-1,0.6-1.6,1.5-2.1,2.7c0,0.7,0,1.4,0,2.2c0,0.7,0,1.4,0,2.2c0,0.1,0,0.2,0.1,0.5s0.2,0.4,0.2,0.5
			c0.5,0.9,1.2,1.6,2.1,2.1C199.4,102.7,200.4,103,201.4,103 M225.6,107.5c-2.1,0-4-0.4-5.5-1.3c-1.6-0.8-2.8-2-3.7-3.6
			c-0.9-1.5-1.3-3.4-1.3-5.5c0-2,0.4-3.8,1.2-5.3c0.8-1.6,2-2.8,3.5-3.7c1.5-0.9,3.3-1.4,5.3-1.4c2.5,0,4.5,0.7,5.9,2.1
			c1.4,1.4,2.4,3.3,2.9,5.6c0,0,0,0.1,0,0.2c0,0.2-0.1,0.4-0.2,0.5c-0.1,0.1-0.3,0.2-0.4,0.3c-0.5,0.2-1,0.4-1.6,0.6
			c-0.6,0.2-1.1,0.4-1.6,0.6c-1.5,0.6-3,1.1-4.6,1.7c-1.5,0.5-3.1,1.1-4.6,1.7c-0.1,0.1-0.2,0.1-0.2,0.2c0,0,0,0.1,0,0.2
			c0.6,1,1.4,1.8,2.4,2.3c1,0.5,2.1,0.8,3.3,0.8c0.9,0,1.8-0.1,2.6-0.4c0.8-0.3,1.6-0.7,2.3-1.1c0.1-0.1,0.2-0.1,0.3-0.1
			c0.1,0,0.2-0.1,0.3-0.1c0.2,0,0.4,0.1,0.5,0.2c0.1,0.1,0.2,0.3,0.3,0.4c0.1,0.1,0.2,0.3,0.3,0.7c0.2,0.4,0.3,0.7,0.5,1.1
			c0.2,0.4,0.2,0.6,0.2,0.7c0,0.2,0,0.3-0.1,0.4s-0.2,0.2-0.3,0.3c-1,0.7-2.3,1.2-3.7,1.6C228.2,107.4,226.8,107.5,225.6,107.5
			 M220.1,97c1.5-0.5,2.9-1,4.4-1.5c1.5-0.5,2.9-1,4.4-1.5c-0.4-0.8-0.9-1.5-1.5-2.1c-0.6-0.6-1.4-0.9-2.4-0.9c-1.1,0-2,0.3-2.7,0.9
			c-0.7,0.6-1.3,1.3-1.6,2.3C220.3,95,220.1,96,220.1,97"/>
		<rect x="-4.2" y="3.8" class="st2" width="114.9" height="114.9"/>
		<path class="st0" d="M93.9,91.7c-3.7,4.5-9.2,6.8-16.1,6.8h-0.2c-9.2-0.1-19-4.7-29.1-13.9c-4.5-4.1-8.7-8.7-12.3-13.6
			c-0.5-0.8-0.5-1.8,0.1-2.5c4-4.4,8.5-4.2,11.6-3.3c2,0.6,3.8,1.6,5.4,2.9l2.8,2.2l0.2-25.4V34.5l0-0.2c0.4-3.9,3.8-6.8,7.8-6.5
			c3.5,0.3,6.3,3.2,6.5,6.7l2.3,19c0.1,1.1-0.6,2.1-1.7,2.2C70,55.9,69,55.1,68.8,54l0,0l-2.3-19.2l0-0.2c-0.1-1.7-1.5-3.1-3.3-3
			c-1.6,0.1-2.9,1.3-3,2.9v10.3L60,74.3c0,1.1-0.9,2-2,2c-0.4,0-0.9-0.1-1.2-0.4l-6.1-4.7l-0.1-0.1c0,0-1.7-1.5-4.1-2.2
			c-2.1-0.7-4.4-0.3-6.2,1.1c4.2,5.3,20.1,24.3,37.1,24.4h0.2c5.7,0,10.1-1.8,13-5.3c6.3-7.5,4.7-21,4.2-24.4
			c-5.9-3.9-13.3-6.3-18.4-7.7c-1-0.4-1.6-1.5-1.2-2.5c0.3-0.9,1.3-1.5,2.2-1.3c5.7,1.5,13.8,4.3,20.4,8.7c0.4,0.3,0.7,0.7,0.8,1.3
			C98.9,64,102.2,81.6,93.9,91.7 M50.1,36.6c1.1-0.1,1.9-1,1.8-2.1c-0.1-1-0.9-1.8-1.8-1.8H26.4l-0.2,0l-0.2,0c-1.1,0-2,0.9-2,2
			c0,0,0,0,0,0c0,3.6-2.9,6.6-6.6,6.6c-3.6,0-6.6-2.9-6.6-6.6c0-3.6,2.9-6.6,6.6-6.6c1.7,0,3.4,0.7,4.6,1.9c0.8,0.8,2.1,0.7,2.8-0.1
			c0.7-0.8,0.7-2,0-2.8C20.8,23,14.1,23,10,27.2c-4.1,4.2-4,10.8,0.1,14.9c2,2,4.6,3,7.4,3c5.1,0,9.4-3.7,10.4-8.6L50.1,36.6z"/>
	</g>
</g>
</svg>
