<svg version="1.2" xmlns="http://www.w3.org/2000/svg" viewBox="0 0 124 123" width="124" height="123">
	<title>logo-svg</title>
	<style>
		.s0 { fill: #0052de } 
		.s1 { fill: #ffffff } 
	</style>
	<g>
		<g>
			<path class="s0" d="m124 0.1v122.7h-123.1v-122.7z"/>
			<path class="s1" d="m6.9 6.1h110.8v110.8h-110.8z"/>
			<path fill-rule="evenodd" class="s0" d="m101.5 90.9c-3.6 4.3-8.8 6.5-15.6 6.5h-0.2c-8.9-0.1-18.3-4.6-28-13.4q-1.7-1.5-3.2-3-1.6-1.6-3.1-3.3-1.5-1.6-2.9-3.3-1.4-1.7-2.7-3.5-0.2-0.3-0.3-0.6-0.1-0.3-0.1-0.6 0.1-0.4 0.2-0.7 0.1-0.3 0.3-0.5c3.9-4.3 8.3-4.1 11.2-3.2q0.7 0.2 1.4 0.5 0.7 0.3 1.3 0.7 0.7 0.3 1.3 0.7 0.6 0.4 1.2 0.9l2.7 2.1 0.2-24.5v-10-0.2c0.2-1.8 1-3.4 2.3-4.5 1.3-1.2 2.9-1.8 4.7-1.8 1.7 0 3.4 0.7 4.6 1.9 1.3 1.2 2 2.8 2.1 4.6l2.2 18.3c0.1 0.6 0 1.1-0.3 1.5-0.4 0.4-0.8 0.6-1.3 0.7-0.5 0-1-0.1-1.4-0.4-0.4-0.3-0.7-0.8-0.8-1.3l-2.2-18.5v-0.2c0-0.8-0.4-1.5-0.9-2.1-0.6-0.5-1.3-0.8-2.1-0.8-0.8 0-1.5 0.3-2.1 0.8-0.6 0.5-0.9 1.2-1 2v10l-0.2 28.4q0 0.5-0.2 1-0.3 0.5-0.8 0.7-0.5 0.3-1.1 0.2-0.5 0-1-0.4l-5.8-4.5-0.1-0.1c0 0-1.7-1.4-3.9-2.1q-0.8-0.2-1.6-0.3-0.8 0-1.5 0.1-0.8 0.1-1.5 0.5-0.8 0.3-1.4 0.8c4 5.1 19.4 23.4 35.8 23.6h0.2c5.5 0 9.8-1.8 12.6-5.2 6-7.3 4.5-20.2 4-23.5-5.7-3.7-12.8-6.1-17.7-7.4-0.5-0.2-0.9-0.5-1.1-0.9-0.2-0.5-0.3-1-0.2-1.4 0.2-0.5 0.5-0.9 0.9-1.2 0.4-0.2 0.9-0.3 1.3-0.2 5.5 1.4 13.4 4.1 19.7 8.4 0.4 0.3 0.7 0.7 0.8 1.2 0.1 0.7 3.3 17.7-4.7 27.5m-63.7-53.2c-0.9 4.7-5 8.3-9.9 8.3-3.4 0-6.6-1.7-8.5-4.5-1.9-2.9-2.3-6.4-1-9.6 1.3-3.1 4.1-5.4 7.4-6.1 3.3-0.7 6.8 0.3 9.2 2.7 0.3 0.4 0.5 0.9 0.5 1.4 0 0.5-0.2 0.9-0.5 1.3-0.4 0.4-0.9 0.6-1.4 0.6-0.5 0-0.9-0.2-1.3-0.5-2.2-2.2-5.5-2.5-8-0.8-2.5 1.7-3.5 4.9-2.3 7.7 1.2 2.8 4.1 4.4 7.1 3.8 2.9-0.6 5.1-3.2 5.1-6.2q0-0.4 0.1-0.8 0.2-0.3 0.4-0.6 0.3-0.3 0.7-0.4 0.3-0.1 0.7-0.1h0.2 0.1 22.9c0.4 0 0.9 0.2 1.2 0.6 0.3 0.3 0.5 0.8 0.5 1.3 0 0.5-0.2 0.9-0.5 1.3-0.3 0.3-0.8 0.6-1.2 0.6z"/>
		</g>
	</g>
</svg>